<svg width="53" height="41" viewBox="0 0 53 41" fill="none" xmlns="http://www.w3.org/2000/svg">
<path d="M38.4377 19.2857C35.7284 19.2857 33.5836 18.3835 32.0032 16.5789C30.3099 14.8872 29.4633 12.6316 29.4633 9.81203C29.4633 6.76692 30.4792 4.3421 32.5112 2.53759C34.4302 0.845862 37.0831 -1.3915e-06 40.4697 -1.09544e-06C44.4207 -7.5003e-07 47.525 1.52255 49.7828 4.56766C51.9276 7.61278 53 11.9549 53 17.594C53 22.6692 51.8711 27.3496 49.6134 31.6353C47.3557 36.0338 43.9691 40.4323 39.4537 44.8308C39.3408 44.9436 39.1715 45 38.9457 45C38.607 45 38.3248 44.8308 38.099 44.4925C37.8733 44.1541 37.8733 43.8722 38.099 43.6466C43.6305 38.0075 46.3962 31.3534 46.3962 23.6842C46.3962 20.5263 45.8317 18.2143 44.7029 16.7481C43.6869 18.4398 41.5985 19.2857 38.4377 19.2857ZM8.97444 19.2857C6.26518 19.2857 4.12034 18.3835 2.53993 16.5789C0.846644 14.8872 2.82974e-06 12.6316 3.07623e-06 9.81203C3.34244e-06 6.76691 1.01597 4.3421 3.04792 2.53759C4.96698 0.845859 7.61981 -3.96726e-06 11.0064 -3.6712e-06C14.9574 -3.32579e-06 18.0618 1.52255 20.3195 4.56766C22.4643 7.61278 23.5367 11.9549 23.5367 17.594C23.5367 22.6692 22.4079 27.3496 20.1502 31.6353C17.8924 36.0338 14.5059 40.4323 9.99041 44.8308C9.87753 44.9436 9.7082 45 9.48243 45C9.14377 45 8.86155 44.8308 8.63578 44.4925C8.41001 44.1541 8.41001 43.8722 8.63578 43.6466C14.1672 38.0075 16.9329 31.3534 16.9329 23.6842C16.9329 20.5263 16.3685 18.2143 15.2396 16.7481C14.2236 18.4398 12.1353 19.2857 8.97444 19.2857Z" fill="#AAAAAA"/>
</svg>
